<svg width="192" height="192" viewBox="0 0 192 192" fill="none" xmlns="http://www.w3.org/2000/svg">
  <!-- Background with gradient -->
  <rect width="192" height="192" rx="48" fill="url(#gradient)"/>
  
  <!-- PiggyBank icon in white -->
  <g transform="translate(48, 48)">
    <path d="M96 24C96 10.7452 85.2548 0 72 0C58.7452 0 48 10.7452 48 24V30H24C10.7452 30 0 40.7452 0 54V78C0 91.2548 10.7452 102 24 102H30V108C30 121.255 40.7452 132 54 132H78C91.2548 132 102 121.255 102 108V102H108C121.255 102 132 91.2548 132 78V54C132 40.7452 121.255 30 108 30H102V24C102 10.7452 91.2548 0 78 0C64.7452 0 54 10.7452 54 24V30H48V24Z" fill="white" fill-opacity="0.9"/>
    
    <!-- Simplified piggy bank shape -->
    <ellipse cx="48" cy="48" rx="36" ry="24" fill="white"/>
    <circle cx="42" cy="42" r="3" fill="url(#gradient)"/>
    <path d="M72 48C72 51.3137 69.3137 54 66 54C62.6863 54 60 51.3137 60 48" stroke="url(#gradient)" stroke-width="2" stroke-linecap="round"/>
    <rect x="30" y="66" width="6" height="12" rx="3" fill="white"/>
    <rect x="54" y="66" width="6" height="12" rx="3" fill="white"/>
    <rect x="42" y="72" width="6" height="6" rx="3" fill="white"/>
    
    <!-- Coin slot -->
    <rect x="45" y="30" width="6" height="3" rx="1.5" fill="url(#gradient)"/>
  </g>
  
  <!-- Sparkle effect -->
  <circle cx="156" cy="36" r="18" fill="#FFD700"/>
  <path d="M156 24L158.5 31.5L166 34L158.5 36.5L156 44L153.5 36.5L146 34L153.5 31.5Z" fill="white"/>
  
  <defs>
    <linearGradient id="gradient" x1="0%" y1="0%" x2="100%" y2="100%">
      <stop offset="0%" style="stop-color:#6366F1"/>
      <stop offset="50%" style="stop-color:#8B5CF6"/>
      <stop offset="100%" style="stop-color:#EC4899"/>
    </linearGradient>
  </defs>
</svg>